<svg height="512pt" viewBox="0 0 512 512" width="512pt" xmlns="http://www.w3.org/2000/svg"><path d="m512 256c0 141.386719-114.613281 256-256 256s-256-114.613281-256-256 114.613281-256 256-256 256 114.613281 256 256zm0 0" fill="#a1f1fc"/><path d="m256 351.730469c-73.273438 0-139.351562 30.792969-186.019531 80.136719 5.914062 6.253906 12.136719 12.210937 18.648437 17.84375 1.511719-1.597657 3.042969-3.183594 4.605469-4.746094 43.476563-43.476563 101.28125-67.417969 162.765625-67.417969s119.289062 23.941406 162.765625 67.417969c1.5625 1.5625 3.09375 3.148437 4.605469 4.746094 6.511718-5.632813 12.734375-11.589844 18.648437-17.84375-46.667969-49.34375-112.746093-80.136719-186.019531-80.136719zm0 0" fill="#5fd4e3"/><path d="m511.917969 262.472656c.054687-2.152344.082031-4.308594.082031-6.472656s-.027344-4.320312-.082031-6.472656c-3.382813-136.242188-113.203125-246.0625-249.445313-249.4453128-2.152344-.0546874-4.308594-.0820312-6.472656-.0820312s-4.320312.0273438-6.472656.0820312c-136.242188 3.3828128-246.0625 113.2031248-249.4453128 249.4453128-.0546874 2.152344-.0820312 4.308594-.0820312 6.472656s.0273438 4.320312.0820312 6.472656c3.3828128 136.242188 113.2031248 246.0625 249.4453128 249.445313 2.152344.054687 4.308594.082031 6.472656.082031s4.320312-.027344 6.472656-.082031c136.242188-3.382813 246.0625-113.203125 249.445313-249.445313zm-133.449219-19.378906c-.914062-38.46875-5.902344-74.691406-14.074219-106.851562 21.445313-10.039063 41.265625-22.960938 58.96875-38.269532 37.601563 39.765625 59.464844 90.671875 62.457031 145.121094zm-352.285156 0c2.988281-54.449219 24.855468-105.355469 62.457031-145.121094 17.703125 15.308594 37.523437 28.230469 58.964844 38.269532-8.167969 32.160156-13.15625 68.382812-14.070313 106.851562zm216.910156-109.003906c-22.21875-1.222656-43.847656-5.578125-64.371094-12.871094 4.039063-12.480469 8.65625-24.238281 13.851563-35.085938 14.785156-30.867187 32.65625-51.125 50.519531-57.847656zm73.984375-100.121094c31.992187 8.746094 61.738281 24.390625 87.441406 46.164062-14.605469 12.375-30.511719 22.765626-47.402343 31.035157-10.394532-31.5625-24.082032-58.027344-40.039063-77.199219zm16.195313 87.25c-20.519532 7.292969-42.148438 11.648438-64.367188 12.867188v-105.800782c17.859375 6.722656 35.730469 26.976563 50.519531 57.847656 5.195313 10.84375 9.808594 22.605469 13.847657 35.085938zm-178.390626-10.046875c-16.886718-8.273437-32.796874-18.664063-47.398437-31.035156 25.699219-21.777344 55.445313-37.421875 87.441406-46.167969-15.960937 19.171875-29.648437 45.636719-40.042969 77.203125zm16.839844 34.890625c22.523438 7.847656 46.476563 12.640625 71.371094 13.878906v83.152344h-83.734375c.847656-34.375 5.09375-67.277344 12.363281-97.03125zm71.371094 122.84375v214.808594c-17.863281-6.722656-35.734375-26.976563-50.519531-57.847656-20.085938-41.933594-31.742188-97.265626-33.214844-156.960938zm25.8125 214.808594v-214.808594h83.734375c-1.472656 59.695312-13.128906 115.027344-33.214844 156.960938-14.789062 30.871093-32.65625 51.125-50.519531 57.847656zm0-240.621094v-83.152344c24.894531-1.238281 48.847656-6.03125 71.371094-13.878906 7.269531 29.753906 11.515625 62.65625 12.359375 97.03125zm-242.722656 25.8125h107.351562c2.128906 89.527344 26.285156 166.949219 61.390625 209.125-38.09375-10.414062-73.011719-30.585938-101.691406-59.265625-40.417969-40.417969-63.941406-93.226563-67.050781-149.859375zm290.894531 209.125c35.105469-42.179688 59.261719-119.597656 61.390625-209.125h107.351562c-3.109374 56.632812-26.632812 109.441406-67.050781 149.859375-28.683593 28.679687-63.597656 48.851563-101.691406 59.265625zm0 0" fill="#5fd4e3"/><path d="m.238281 266.757812c5.554688-134.253906 114.476563-241.816406 249.289063-245.164062 2.152344-.054688 4.308594-.082031 6.472656-.082031s4.320312.027343 6.472656.082031c134.8125 3.347656 243.734375 110.910156 249.289063 245.164062.054687-1.429687.121093-2.851562.15625-4.285156.054687-2.152344.082031-4.308594.082031-6.472656s-.027344-4.320312-.082031-6.472656c-3.382813-136.242188-113.203125-246.0625-249.445313-249.4453128-2.152344-.0546874-4.308594-.0820312-6.472656-.0820312s-4.320312.0273438-6.472656.0820312c-136.242188 3.3828128-246.0625 113.2031248-249.4453128 249.4453128-.0546874 2.152344-.0820312 4.308594-.0820312 6.472656s.0273438 4.320312.0820312 6.472656c.0351568 1.433594.1015628 2.855469.1562498 4.285156zm0 0" fill="#a1f1fc"/><path d="m511.761719 245.242188c-5.554688 134.253906-114.476563 241.816406-249.285157 245.164062-2.152343.054688-4.3125.082031-6.472656.082031-2.164062 0-4.324218-.027343-6.476562-.082031-134.8125-3.347656-243.734375-110.910156-249.289063-245.164062-.054687 1.429687-.121093 2.851562-.1562498 4.285156-.0546874 2.152344-.0820312 4.308594-.0820312 6.472656s.0273438 4.320312.0820312 6.472656c3.3828128 136.242188 113.2031248 246.0625 249.4453128 249.445313 2.152344.054687 4.308594.082031 6.472656.082031s4.320312-.027344 6.472656-.082031c136.242188-3.382813 246.0625-113.203125 249.445313-249.445313.054687-2.152344.082031-4.308594.082031-6.472656s-.027344-4.320312-.082031-6.472656c-.035157-1.433594-.101563-2.855469-.15625-4.285156zm0 0" fill="#53bac7"/><path d="m485.582031 341.46875h-459.164062c-14.589844 0-26.417969-11.828125-26.417969-26.417969v-118.101562c0-14.589844 11.828125-26.417969 26.417969-26.417969h459.164062c14.589844 0 26.417969 11.828125 26.417969 26.417969v118.097656c0 14.59375-11.828125 26.421875-26.417969 26.421875zm0 0" fill="#ff8354"/><path d="m485.582031 341.46875h-459.164062c-14.589844 0-26.417969-11.828125-26.417969-26.417969v-118.101562c0-14.589844 11.828125-26.417969 26.417969-26.417969h459.164062c14.589844 0 26.417969 11.828125 26.417969 26.417969v118.097656c0 14.59375-11.828125 26.421875-26.417969 26.421875zm0 0" fill="#ff8354"/><path d="m485.582031 327.464844h-459.164062c-14.589844 0-26.417969-11.824219-26.417969-26.417969v14c0 14.589844 11.828125 26.417969 26.417969 26.417969h459.164062c14.589844 0 26.417969-11.828125 26.417969-26.417969v-14c0 14.59375-11.828125 26.417969-26.417969 26.417969zm0 0" fill="#e0734a"/><path d="m485.582031 170.535156h-459.164062c-14.589844 0-26.417969 11.824219-26.417969 26.417969v14c0-14.589844 11.828125-26.417969 26.417969-26.417969h459.164062c14.589844 0 26.417969 11.828125 26.417969 26.417969v-14c0-14.59375-11.828125-26.417969-26.417969-26.417969zm0 0" fill="#ffac8c"/><g fill="#fff7f2"><path d="m83.121094 190.910156h1.203125c6.097656 0 11.039062 4.941406 11.039062 11.035156v90.355469h41.207031c6.09375 0 11.039063 4.9375 11.039063 11.035157 0 6.09375-4.941406 11.035156-11.039063 11.035156h-53.246093c-6.207031 0-11.238281-5.03125-11.238281-11.238282v-101.1875c0-6.09375 4.941406-11.035156 11.035156-11.035156zm0 0"/><path d="m188.078125 190.910156h1.207031c6.09375 0 11.035156 4.941406 11.035156 11.035156v101.390626c0 6.09375-4.9375 11.035156-11.035156 11.035156h-1.207031c-6.09375 0-11.035156-4.9375-11.035156-11.035156v-101.390626c.003906-6.09375 4.941406-11.035156 11.035156-11.035156zm0 0"/><path d="m240.105469 190.910156h1.695312c4.714844 0 8.90625 2.992188 10.4375 7.453125l22.960938 66.867188 4.480469 15.863281h1.378906l4.828125-15.863281 23.9375-66.996094c1.570312-4.390625 5.730469-7.324219 10.394531-7.324219h1.628906c7.664063 0 12.992188 7.617188 10.367188 14.816406l-35.433594 97.203126c-2.503906 6.871093-9.035156 11.441406-16.347656 11.441406-7.375 0-13.949219-4.648438-16.40625-11.601563l-34.328125-97.148437c-2.535157-7.179688 2.789062-14.710938 10.40625-14.710938zm0 0"/><path d="m384.910156 212.980469v28.625h38.453125c6.09375 0 11.035157 4.9375 11.035157 11.035156 0 6.09375-4.941407 11.039063-11.035157 11.039063h-38.453125v28.621093h43.96875c6.09375 0 11.035156 4.941407 11.035156 11.039063 0 6.09375-4.9375 11.035156-11.035156 11.035156h-56.007812c-6.207032 0-11.238282-5.03125-11.238282-11.238281v-100.988281c0-6.203126 5.03125-11.238282 11.238282-11.238282h56.007812c6.09375 0 11.035156 4.941406 11.035156 11.039063 0 6.09375-4.9375 11.035156-11.035156 11.035156h-43.96875zm0 0"/></g></svg>