<svg id="Layer_3" enable-background="new 0 0 64 64" height="512" viewBox="0 0 64 64" width="512" xmlns="http://www.w3.org/2000/svg"><path d="m2 22 8-8v8z" fill="#c7e2fc"/><path d="m24 14h6v36h-28v-28h8v-8h6" fill="#a1cdfb"/><path d="m16 14h-.876c-.969 2.48-1.507 5.177-1.507 8 0 10.208 6.954 18.79 16.383 21.274v-29.274h-6z" fill="#c7e2fc"/><path d="m46 35v-3c0-1.105.895-2 2-2 1.105 0 2 .895 2 2v3" fill="#8892a0"/><path d="m37 40-3-3 3-3 3 3" fill="#8892a0"/><path d="m59 40 3-3-3-3-3 3" fill="#8892a0"/><circle cx="48" cy="48" fill="#70ce90" r="14"/><circle cx="48" cy="48" fill="#fff" r="10"/><path d="m18 3-2 8h8l-2-8" fill="#e47c6e"/><path d="m22 11-2 8-2-8" fill="#8892a0"/><path d="m5 37h11v2h-11z" fill="#fff"/><path d="m5 41h11v2h-11z" fill="#fff"/><path d="m5 45h11v2h-11z" fill="#fff"/><path d="m5 33h22v2h-22z" fill="#fff"/><path d="m5 29h22v2h-22z" fill="#fff"/><path d="m5 25h22v2h-22z" fill="#fff"/><g fill="#8892a0"><path d="m15 2h10v2h-10z"/><path d="m47 41h2v-2.95c-.329-.032-.662-.05-1-.05s-.671.018-1 .05z"/><path d="m49 55h-2v2.95c.329.033.662.05 1 .05s.671-.018 1-.05z"/><path d="m41 49v-2h-2.95c-.032.329-.05.662-.05 1s.018.671.05 1z"/><path d="m55 47v2h2.95c.033-.329.05-.662.05-1s-.018-.671-.05-1z"/><path d="m40.258 41.673 2.034 2.034 1.414-1.414-2.034-2.034c-.517.423-.99.896-1.414 1.414z"/><path d="m55.742 54.327-2.034-2.034-1.414 1.414 2.034 2.034c.517-.423.99-.896 1.414-1.414z"/><path d="m54.327 40.258-2.034 2.034 1.414 1.414 2.034-2.034c-.423-.517-.896-.99-1.414-1.414z"/><path d="m40.258 54.327c.423.517.897.991 1.414 1.414l2.034-2.034-1.414-1.414z"/><path d="m45.707 51.707-1.414-1.414 2.707-2.707v-4.586h2v5c0 .266-.105.52-.293.707z"/></g></svg>